# xmcd CD database file
#
# Track frame offsets:
#	150
#	30690
#	63438
#	88087
#	106643
#	139672
#	160428
#	198498
#	219809
#
# Disc length: 3596 seconds
#
# Revision: 8
# Processed by: cddbd v1.5.2PL0 Copyright (c) Steve Scherf et al.
# Submitted via: CDex 1.92
#
DISCID=750e0a09
DTITLE=My Dying Bride - For Lies I Sire
DYEAR=2009
DGENRE=Doom Metal
TTITLE0=My Body, A Funeral
TTITLE1=Fall With Me
TTITLE2=The Lies I Sire
TTITLE3=Bring Me Victory
TTITLE4=Echoes From A Hollow Soul
TTITLE5=ShadowHaunt
TTITLE6=Santuario Di Sangue
TTITLE7=A Chapter In Loathing
TTITLE8=Death Triumphant
EXTD=YEAR: 2009
EXTT0=
EXTT1=
EXTT2=
EXTT3=
EXTT4=
EXTT5=
EXTT6=
EXTT7=
EXTT8=
PLAYORDER=
